{"title":"Guns n roses videos DVD-Rip (DIVX)","uid":5065945,"size":760735151,"categoryP":"video","categoryS":"music_videos","magnet":"?xt=urn:btih:fd6e9121bb2b8e819c53d9b26c91e83dacd90b62&amp;dn=Guns+n+roses+videos+DVD-Rip+%28DIVX%29&amp;tr=udp%3A%2F%2Ftracker.openbittorrent.com%3A80&amp;tr=udp%3A%2F%2Fopen.demonii.com%3A1337&amp;tr=udp%3A%2F%2Ftracker.coppersurfer.tk%3A6969&amp;tr=udp%3A%2F%2Fexodus.desync.com%3A6969","seeders":0,"leechers":0,"uploader":"drchapatin","files":12,"time":1251013964,"description":"Its my collection, of my favourites Band \n\n\nDeath horse\nDont cry\nEstranged\nLive and let die\nNovember Rain\nParadise city\nPatience\nSince i donÃ‚Â´t have you\nSweet child of mine\nWelcome to the jungle\nYesterday\n\nQuality example:\n\nVideo\nID                               : 0\nFormat                           : MPEG-4 Visual\nFormat settings, BVOP            : No\nFormat settings, QPel            : No\nFormat settings, GMC             : No warppoints\nFormat settings, Matrix          : Default (H.263)\nCodec ID                         : DX50\nCodec ID/Hint                    : DivX 5\nDuration                         : 9mn 12s\nBit rate                         : 1 497 Kbps\nWidth                            : 640 pixels\nHeight                           : 480 pixels\nDisplay aspect ratio             : 4/3\nFrame rate                       : 29.970 fps\nResolution                       : 24 bits\nColorimetry                      : 4:2:0\nScan type                        : Progressive\nBits/(Pixel*Frame)               : 0.163\nStream size                      : 98.7 MiB (91%)\nTitle                            : Video \nWriting library                  : DivX 2151\n\nAudio\nID                               : 1\nFormat                           : MPEG Audio\nFormat version                   : Version 1\nFormat profile                   : Layer 3\nCodec ID                         : 55\nCodec ID/Hint                    : MP3\nDuration                         : 9mn 12s\nBit rate mode                    : Constant\nBit rate                         : 128 Kbps\nChannel(s)                       : 2 channels\nSampling rate                    : 48.0 KHz\nResolution                       : 16 bits\nStream size                      : 8.44 MiB (8%)\nAlignment                        : Split accross interleaves\nInterleave, duration             : 33 ms (1.00 video frame)\nInterleave, preload duration     : 500 ms\nTitle                            : Audio\n\n\n[URL=http://www.speedtest.net][IMG]http://www.speedtest.net/result/197458320.png[/IMG][/URL]","torrent":{"xt":"urn:btih:fd6e9121bb2b8e819c53d9b26c91e83dacd90b62","amp;dn":"Guns+n+roses+videos+DVD-Rip+%28DIVX%29","amp;tr":["udp%3A%2F%2Ftracker.openbittorrent.com%3A80","udp%3A%2F%2Fopen.demonii.com%3A1337","udp%3A%2F%2Ftracker.coppersurfer.tk%3A6969","udp%3A%2F%2Fexodus.desync.com%3A6969"],"infoHash":"fd6e9121bb2b8e819c53d9b26c91e83dacd90b62","infoHashBuffer":{"type":"Buffer","data":[253,110,145,33,187,43,142,129,156,83,217,178,108,145,232,61,172,217,11,98]},"announce":[],"urlList":[]}}